<svg width="818" height="27" viewBox="0 0 818 27" fill="none" xmlns="http://www.w3.org/2000/svg">
<path d="M816 9.31823C809.518 9.31823 804.111 12.4546 797.393 12.4546C793.873 12.4546 786.817 13.8101 783.732 11.8738C780.654 9.94154 777.78 7.42082 774.605 5.65915C769.469 2.80914 757.089 3.09855 751.346 4.32329C739.843 6.77665 728.397 10.7838 717.194 14.5455C710.705 16.7245 698.599 20.0228 692.463 16.1717C687.611 13.1259 682.037 9.31822 676.094 9.31822C661.051 9.31822 647.459 10.1116 632.638 13.0354C623.583 14.8218 614.205 15.3687 605.081 16.8687C600.319 17.6515 595.055 18.6342 590.242 18.7273C582.458 18.8778 575.011 18.4083 567.454 17.6237C565.166 17.3861 561.077 15.1745 558.975 14.0227C556.494 12.663 552.024 13.5 549.26 13.5C544.158 13.5 538.272 12.762 533.243 13.7323C528.741 14.6012 524.232 16.7967 519.7 17.9141C515.942 18.8409 511.4 21.6192 507.806 21.8636C502.806 22.2037 498.056 19.9218 493.556 18.1465C484.692 14.649 477.277 9.3182 467.294 9.3182C463.035 9.3182 458.776 9.3182 454.517 9.3182C448.106 9.3182 442.799 12.7689 436.498 13.5C422.748 15.0957 410.006 22.4143 395.751 20.7601C391.705 20.2906 388.03 17.6818 384.034 17.6818C379.61 17.6818 376.164 13.9841 371.845 13.5581C365.82 12.9638 358.293 9.08945 351.766 11.8737C347.455 13.7124 342.632 15.9996 338.223 17.4495C334.643 18.6263 330.096 20.9214 326.328 20.8182C316.297 20.5433 308.775 11.5013 299.89 8.21465C296.124 6.82178 293.457 5.01709 289.232 4.09093C283.261 2.78209 278.575 2.00002 272.332 2.00002C265.366 2.00002 258.546 3.69783 251.9 5.60102C246.14 7.25053 239.448 7.96201 234.471 11.4091C229.719 14.6999 223.225 15.7641 218.69 18.9596C214.881 21.6429 213.679 22.0045 208.68 21.8636C203.061 21.7052 195.075 14.0952 190.19 11.4672C184.082 8.18042 177.326 7.22727 170.465 7.22727C158.463 7.22727 146.031 10.7355 136.371 18.1464C127.533 24.927 120.364 22.744 110.934 18.7272C106.339 16.77 102.387 14.0186 97.9206 11.9318C94.5842 10.3729 90.3169 9.60893 87.2628 7.69191C79.8495 3.03867 74.8741 6.12511 68.6557 10.9444C64.7051 14.0061 57.5699 21.1837 51.8151 18.4949C45.195 15.4018 41.6677 9.31816 33.7969 9.31816C26.5612 9.31816 19.6094 9.59529 12.599 10.3636C10.2811 10.6176 5.98178 15.5086 5.41526 17.6818C4.64444 20.6385 2.00001 22.1381 2.00001 24.9999" stroke="#002033" stroke-width="3" stroke-linecap="round"/>
</svg>
