<svg width="818" height="27" viewBox="0 0 818 27" fill="none" xmlns="http://www.w3.org/2000/svg">
<path d="M2 17.6818C8.48201 17.6818 13.8886 14.5455 20.6071 14.5455C24.1274 14.5455 31.1831 13.1899 34.2679 15.1263C37.3463 17.0585 40.2197 19.5792 43.3948 21.3409C48.5315 24.1909 60.911 23.9015 66.6536 22.6768C78.1572 20.2234 89.6032 16.2162 100.806 12.4545C107.295 10.2755 119.401 6.97719 125.537 10.8283C130.389 13.8741 135.963 17.6818 141.906 17.6818C156.949 17.6818 170.541 16.8884 185.362 13.9646C194.417 12.1782 203.795 11.6313 212.919 10.1313C217.681 9.3485 222.945 8.3658 227.758 8.27273C235.542 8.12218 242.989 8.59166 250.546 9.37626C252.834 9.61391 256.923 11.8255 259.025 12.9773C261.506 14.337 265.976 13.5 268.74 13.5C273.842 13.5 279.728 14.238 284.757 13.2677C289.259 12.3988 293.768 10.2033 298.3 9.08586C302.058 8.15914 306.6 5.38083 310.194 5.13636C315.194 4.79627 319.944 7.0782 324.444 8.85354C333.308 12.351 340.723 17.6818 350.706 17.6818C354.965 17.6818 359.224 17.6818 363.483 17.6818C369.894 17.6818 375.201 14.2311 381.502 13.5C395.252 11.9043 407.994 4.5857 422.249 6.2399C426.295 6.70943 429.97 9.31818 433.966 9.31818C438.39 9.31818 441.836 13.0159 446.155 13.4419C452.18 14.0361 459.707 17.9106 466.234 15.1263C470.545 13.2876 475.368 11.0004 479.777 9.55051C483.357 8.37364 487.904 6.07859 491.672 6.18182C501.703 6.45667 509.225 15.4987 518.11 18.7854C521.876 20.1782 524.543 21.9829 528.768 22.9091C534.739 24.2179 539.425 25 545.668 25C552.635 25 559.454 23.3022 566.1 21.399C571.86 19.7495 578.552 19.038 583.529 15.5909C588.281 12.3001 594.775 11.2358 599.31 8.0404C603.119 5.35702 604.321 4.99547 609.32 5.13636C614.939 5.29472 622.925 12.9048 627.81 15.5328C633.918 18.8196 640.674 19.7727 647.535 19.7727C659.537 19.7727 671.969 16.2645 681.629 8.85354C690.467 2.07296 697.636 4.25594 707.066 8.27273C711.661 10.23 715.613 12.9814 720.079 15.0682C723.416 16.6271 727.683 17.391 730.737 19.3081C738.15 23.9613 743.126 20.8749 749.344 16.0556C753.295 12.9939 760.43 5.81622 766.185 8.50505C772.805 11.5982 776.332 17.6818 784.203 17.6818C791.439 17.6818 798.391 17.4047 805.401 16.6364C807.719 16.3823 812.018 11.4913 812.585 9.31818C813.356 6.36141 816 4.86187 816 2" stroke="#002033" stroke-width="3" stroke-linecap="round"/>
</svg>
