<svg width="260" height="11" viewBox="0 0 260 11" fill="none" xmlns="http://www.w3.org/2000/svg">
<path d="M1 6.81838C14.159 9.53603 27.5201 10.2038 40.9116 9.95031C53.5432 9.71123 65.8407 8.20998 78.3417 6.49807C84.6176 5.63864 90.878 5.25584 97.1601 4.50503C108.435 3.15752 120.114 3.93558 131.454 3.93558C146.056 3.93558 160.658 3.93558 175.26 3.93558C188.909 3.93558 202.837 4.73697 216.447 3.61527C226.157 2.815 235.855 1.7516 245.605 1.69341C249.478 1.67029 261.093 1.37309 257.22 1.37309C255.697 1.37309 254.165 1.60098 252.705 2.03151C249.291 3.03872 245.661 2.91451 242.124 3.63307C230.646 5.96462 219.229 5.53714 207.572 5.53714C199.952 5.53714 192.492 6.66593 184.911 7.28105C175.823 8.01838 166.758 8.09963 157.648 8.09963C146.215 8.09963 134.787 8.41562 123.406 7.1209C108.933 5.47439 94.4023 4.56822 79.9099 3.1526C64.3066 1.62847 48.7392 1.05278 33.0706 1.05278C25.534 1.05278 17.9975 1.05278 10.4609 1.05278C9.80764 1.05278 5.86164 0.83502 7.06602 1.28412C13.5249 3.69257 19.9955 5.56194 26.7116 7.1031C46.8065 11.7143 68.2238 9.13026 88.4747 7.13869" stroke="#002033" stroke-width="2" stroke-linecap="round"/>
</svg>
