<svg width="29" height="62" viewBox="0 0 29 62" fill="none" xmlns="http://www.w3.org/2000/svg">
<path d="M14.4548 59.3914C14.4548 46.7793 14.7036 38.8054 14.7034 26.0914C14.7019 17.9514 13.2234 11.2914 15.7441 4.06198" stroke="#002133" stroke-width="5" stroke-linecap="round"/>
<path d="M5.42966 12.1669C6.94275 12.4692 8.41021 12.7562 9.92707 12.9783C11.4058 13.1948 12.9256 13.0684 14.4099 13.0684C16.3493 13.0684 18.2321 13.5286 20.159 13.5993C21.6658 13.6547 23.2412 13.3728 24.7511 13.2387C25.8376 13.1422 25.8645 12.7846 25.8645 11.4056C25.8645 9.8563 25.8645 8.30699 25.8645 6.75768C25.8645 5.67584 25.8645 4.59399 25.8645 3.51215" stroke="#002133" stroke-width="5" stroke-linecap="round"/>
<path d="M4.11981 11.9874C3.64473 9.04473 3.46484 6.1599 3.46484 3.15234" stroke="#002133" stroke-width="5" stroke-linecap="round"/>
<path d="M5.69043 10.3634C5.69043 9.02558 5.99043 7.76015 6.11252 6.43673C6.15684 5.95623 6.03721 3.90415 6.34539 3.69205" stroke="#002133" stroke-width="5" stroke-linecap="round"/>
<path d="M7.65524 10.5462C7.9389 9.07813 8.3559 7.42459 8.4412 5.89828C8.4527 5.69247 8.58961 5.39546 8.70318 5.31729" stroke="#002133" stroke-width="5" stroke-linecap="round"/>
<path d="M9.75143 10.7249C10.0401 8.9864 10.255 7.40144 10.2754 5.63619C10.2802 5.22452 10.2472 4.43353 10.5374 4.2338" stroke="#002133" stroke-width="5" stroke-linecap="round"/>
<path d="M12.3712 11.6268C12.4482 9.40055 12.5091 7.17618 12.6332 4.95544" stroke="#002133" stroke-width="5" stroke-linecap="round"/>
<path d="M18.2677 11.6285C18.2677 9.77558 18.3987 7.90522 18.3987 6.03894" stroke="#002133" stroke-width="5" stroke-linecap="round"/>
<path d="M18.397 5.13132V5.85255" stroke="#002133" stroke-width="5" stroke-linecap="round"/>
<path d="M20.2309 11.4483C21.4861 11.1342 22.4867 9.31396 23.7386 8.78374C23.808 8.75431 24.3503 8.63674 24.248 8.44316C23.6532 7.31747 22.2241 6.90659 21.337 6.43974C21.0247 6.27535 21.0126 6.25372 21.337 6.17929C21.8739 6.05612 22.3748 5.83079 22.8289 5.40798C23.8114 4.49311 23.108 4.4639 22.2831 4.33615C22.1481 4.31525 20.1283 4.04173 21.0168 3.6049C21.4485 3.39271 19.9246 3.51475 19.7069 3.51475" stroke="#002133" stroke-width="5" stroke-linecap="round"/>
<path d="M7.00031 58.1456C10.9676 57.9506 14.9436 57.9653 18.9206 57.9653" stroke="#002133" stroke-width="5" stroke-linecap="round"/>
</svg>
