<svg width="57" height="58" viewBox="0 0 57 58" fill="none" xmlns="http://www.w3.org/2000/svg">
<g clip-path="url(#clip0_1_241)">
<path d="M48.0944 0.308716H8.90297C4.03289 0.308716 0.0848999 4.32596 0.0848999 9.28149V48.1635C0.0848999 53.119 4.03289 57.1363 8.90297 57.1363H48.0944C52.9645 57.1363 56.9125 53.119 56.9125 48.1635V9.28149C56.9125 4.32596 52.9645 0.308716 48.0944 0.308716Z" fill="#002033"/>
<path d="M35.8471 12.2725H21.1503C18.7153 12.2725 16.7413 14.2811 16.7413 16.7588C16.7413 19.2366 18.7153 21.2452 21.1503 21.2452H35.8471C38.2821 21.2452 40.2561 19.2366 40.2561 16.7588C40.2561 14.2811 38.2821 12.2725 35.8471 12.2725Z" fill="#C5EE6D"/>
<path d="M35.8471 24.2361H21.1503C18.7153 24.2361 16.7413 26.2447 16.7413 28.7225C16.7413 31.2002 18.7153 33.2089 21.1503 33.2089H35.8471C38.2821 33.2089 40.2561 31.2002 40.2561 28.7225C40.2561 26.2447 38.2821 24.2361 35.8471 24.2361Z" fill="#C5EE6D"/>
<path d="M24.0897 36.1998H21.1503C18.7153 36.1998 16.7413 38.2085 16.7413 40.6862C16.7413 43.164 18.7153 45.1726 21.1503 45.1726H24.0897C26.5247 45.1726 28.4987 43.164 28.4987 40.6862C28.4987 38.2085 26.5247 36.1998 24.0897 36.1998Z" fill="#C5EE6D"/>
</g>
<defs>
<clipPath id="clip0_1_241">
<rect width="56.8276" height="56.8276" fill="white" transform="translate(0.0848999 0.308716)"/>
</clipPath>
</defs>
</svg>
