<svg width="53" height="53" viewBox="0 0 53 53" fill="none" xmlns="http://www.w3.org/2000/svg">
<path d="M33.3535 11.1578H19.6466C17.3755 11.1578 15.5345 13.0312 15.5345 15.342C15.5345 17.6529 17.3755 19.5263 19.6466 19.5263H33.3535C35.6245 19.5263 37.4655 17.6529 37.4655 15.342C37.4655 13.0312 35.6245 11.1578 33.3535 11.1578Z" fill="#002033"/>
<path d="M33.3535 22.3158H19.6466C17.3755 22.3158 15.5345 24.1891 15.5345 26.5C15.5345 28.8109 17.3755 30.6842 19.6466 30.6842H33.3535C35.6245 30.6842 37.4655 28.8109 37.4655 26.5C37.4655 24.1891 35.6245 22.3158 33.3535 22.3158Z" fill="#002033"/>
<path d="M22.3879 33.4736H19.6466C17.3755 33.4736 15.5345 35.347 15.5345 37.6578C15.5345 39.9687 17.3755 41.8421 19.6466 41.8421H22.3879C24.659 41.8421 26.5 39.9687 26.5 37.6578C26.5 35.347 24.659 33.4736 22.3879 33.4736Z" fill="#002033"/>
</svg>
