<svg width="360" height="360" viewBox="0 0 360 360" fill="none" xmlns="http://www.w3.org/2000/svg">
<g clip-path="url(#clip0_1_332)">
<path d="M206.052 142H152.948C146.349 142 141 147.443 141 154.158V206.842C141 213.557 146.349 219 152.948 219H206.052C212.651 219 218 213.557 218 206.842V154.158C218 147.443 212.651 142 206.052 142Z" fill="#002033"/>
<path d="M189.457 158.211H169.543C166.244 158.211 163.569 160.932 163.569 164.29C163.569 167.647 166.244 170.368 169.543 170.368H189.457C192.756 170.368 195.431 167.647 195.431 164.29C195.431 160.932 192.756 158.211 189.457 158.211Z" fill="#C5EE6D"/>
<path d="M189.457 174.421H169.543C166.244 174.421 163.569 177.143 163.569 180.5C163.569 183.857 166.244 186.579 169.543 186.579H189.457C192.756 186.579 195.431 183.857 195.431 180.5C195.431 177.143 192.756 174.421 189.457 174.421Z" fill="#C5EE6D"/>
<path d="M173.526 190.632H169.543C166.244 190.632 163.569 193.353 163.569 196.711C163.569 200.068 166.244 202.789 169.543 202.789H173.526C176.825 202.789 179.5 200.068 179.5 196.711C179.5 193.353 176.825 190.632 173.526 190.632Z" fill="#C5EE6D"/>
</g>
<path d="M111.982 12.773H99.2091V6.38648C99.2091 2.76747 101.977 0 105.596 0C109.215 0 111.982 2.76747 111.982 6.38648V12.773Z" fill="#002033"/>
<path d="M167.596 12.773C171.123 12.773 173.982 9.91363 173.982 6.38648C173.982 2.85932 171.123 0 167.596 0C164.069 0 161.209 2.85932 161.209 6.38648C161.209 9.91363 164.069 12.773 167.596 12.773Z" fill="#002033"/>
<path d="M198.788 12.773H186.015V6.38648C186.015 2.76747 188.782 0 192.401 0H198.788V12.773Z" fill="#002033"/>
<path d="M211.185 0H198.412V12.773H211.185V0Z" fill="#002033"/>
<path d="M223.589 0H210.816V12.773H223.589V0Z" fill="#002033"/>
<path d="M229.605 12.773H223.218V0H229.605C233.224 0 235.991 2.76747 235.991 6.38648C235.991 10.0055 233.224 12.773 229.605 12.773Z" fill="#002033"/>
<path d="M111.982 12.4019H99.2091V25.1748H111.982V12.4019Z" fill="#002033"/>
<path d="M149.185 25.1748H142.799C139.18 25.1748 136.412 22.4073 136.412 18.7883C136.412 15.1693 139.18 12.4019 142.799 12.4019H149.185V25.1748Z" fill="#002033"/>
<path d="M155.201 25.1748H148.814V12.4019H155.201C158.82 12.4019 161.587 15.1693 161.587 18.7883C161.587 22.4073 158.82 25.1748 155.201 25.1748Z" fill="#002033"/>
<path d="M198.788 25.1748H192.401C188.782 25.1748 186.015 22.4073 186.015 18.7883V12.4019H198.788V25.1748Z" fill="#002033"/>
<path d="M211.185 12.4019H198.412V25.1748H211.185V12.4019Z" fill="#002033"/>
<path d="M260.791 25.1748H248.018V18.7883C248.018 15.1693 250.785 12.4019 254.404 12.4019C258.023 12.4019 260.791 15.1693 260.791 18.7883V25.1748Z" fill="#002033"/>
<path d="M105.596 37.5743C101.977 37.5743 99.2091 34.8069 99.2091 31.1879V24.8014H111.982V31.1879C111.982 34.8069 109.215 37.5743 105.596 37.5743Z" fill="#002033"/>
<path d="M136.782 37.5743H124.009V31.1879C124.009 27.5689 126.777 24.8014 130.396 24.8014C134.015 24.8014 136.782 27.5689 136.782 31.1879V37.5743Z" fill="#002033"/>
<path d="M180 37.5743C183.527 37.5743 186.386 34.715 186.386 31.1879C186.386 27.6607 183.527 24.8014 180 24.8014C176.472 24.8014 173.613 27.6607 173.613 31.1879C173.613 34.715 176.472 37.5743 180 37.5743Z" fill="#002033"/>
<path d="M204.799 37.5743C201.18 37.5743 198.412 34.8069 198.412 31.1879V24.8014H211.185V31.1879C211.185 34.8069 208.418 37.5743 204.799 37.5743Z" fill="#002033"/>
<path d="M235.991 37.5743H229.605C225.986 37.5743 223.218 34.8069 223.218 31.1879C223.218 27.5689 225.986 24.8014 229.605 24.8014H235.991V37.5743Z" fill="#002033"/>
<path d="M248.389 24.8014H235.616V37.5743H248.389V24.8014Z" fill="#002033"/>
<path d="M254.404 37.5743H248.018V24.8014H260.791V31.1879C260.791 34.8069 258.023 37.5743 254.404 37.5743Z" fill="#002033"/>
<path d="M124.38 49.9762H117.994C114.375 49.9762 111.607 47.2087 111.607 43.5897C111.607 39.9707 114.375 37.2032 117.994 37.2032H124.38V49.9762Z" fill="#002033"/>
<path d="M136.782 37.2032H124.009V49.9762H136.782V37.2032Z" fill="#002033"/>
<path d="M149.185 37.2032H136.412V49.9762H149.185V37.2032Z" fill="#002033"/>
<path d="M161.587 49.9762H148.814V37.2032H155.201C158.82 37.2032 161.587 39.9707 161.587 43.5897V49.9762Z" fill="#002033"/>
<path d="M198.788 49.9762H186.015V43.5897C186.015 39.9707 188.782 37.2032 192.401 37.2032C196.02 37.2032 198.788 39.9707 198.788 43.5897V49.9762Z" fill="#002033"/>
<path d="M223.589 49.9762H210.816V43.5897C210.816 39.9707 213.584 37.2032 217.203 37.2032C220.822 37.2032 223.589 39.9707 223.589 43.5897V49.9762Z" fill="#002033"/>
<path d="M248.389 37.2032H235.616V49.9762H248.389V37.2032Z" fill="#002033"/>
<path d="M136.782 62.3782H130.396C126.777 62.3782 124.009 59.6107 124.009 55.9917V49.6052H136.782V62.3782Z" fill="#002033"/>
<path d="M149.185 49.6052H136.412V62.3782H149.185V49.6052Z" fill="#002033"/>
<path d="M161.587 49.6052H148.814V62.3782H161.587V49.6052Z" fill="#002033"/>
<path d="M173.982 49.6052H161.209V62.3782H173.982V49.6052Z" fill="#002033"/>
<path d="M186.386 49.6052H173.613V62.3782H186.386V49.6052Z" fill="#002033"/>
<path d="M198.788 49.6052H186.015V62.3782H198.788V49.6052Z" fill="#002033"/>
<path d="M223.589 49.6052H210.816V62.3782H223.589V49.6052Z" fill="#002033"/>
<path d="M235.991 49.6052H223.218V62.3782H235.991V49.6052Z" fill="#002033"/>
<path d="M248.389 49.6052H235.616V62.3782H248.389V49.6052Z" fill="#002033"/>
<path d="M260.791 62.3782H248.018V49.6052H254.404C258.023 49.6052 260.791 52.3727 260.791 55.9917V62.3782Z" fill="#002033"/>
<path d="M111.982 74.78H99.2091V68.3936C99.2091 64.7746 101.977 62.0071 105.596 62.0071C109.215 62.0071 111.982 64.7746 111.982 68.3936V74.78Z" fill="#002033"/>
<path d="M142.799 74.78C139.18 74.78 136.412 72.0126 136.412 68.3936V62.0071H149.185V68.3936C149.185 72.0126 146.418 74.78 142.799 74.78Z" fill="#002033"/>
<path d="M167.596 74.78C163.977 74.78 161.209 72.0126 161.209 68.3936V62.0071H173.982V68.3936C173.982 72.0126 171.215 74.78 167.596 74.78Z" fill="#002033"/>
<path d="M192.401 74.78C188.782 74.78 186.015 72.0126 186.015 68.3936V62.0071H198.788V68.3936C198.788 72.0126 196.02 74.78 192.401 74.78Z" fill="#002033"/>
<path d="M217.203 74.78C213.584 74.78 210.816 72.0126 210.816 68.3936V62.0071H223.589V68.3936C223.589 72.0126 220.822 74.78 217.203 74.78Z" fill="#002033"/>
<path d="M260.791 62.0071H248.018V74.78H260.791V62.0071Z" fill="#002033"/>
<path d="M111.982 74.4033H99.2091V87.1763H111.982V74.4033Z" fill="#002033"/>
<path d="M136.782 87.1763H124.009V80.7898C124.009 77.1708 126.777 74.4033 130.396 74.4033C134.015 74.4033 136.782 77.1708 136.782 80.7898V87.1763Z" fill="#002033"/>
<path d="M155.201 87.1763C158.728 87.1763 161.587 84.317 161.587 80.7898C161.587 77.2626 158.728 74.4033 155.201 74.4033C151.674 74.4033 148.814 77.2626 148.814 80.7898C148.814 84.317 151.674 87.1763 155.201 87.1763Z" fill="#002033"/>
<path d="M180 87.1763C183.527 87.1763 186.386 84.317 186.386 80.7898C186.386 77.2626 183.527 74.4033 180 74.4033C176.472 74.4033 173.613 77.2626 173.613 80.7898C173.613 84.317 176.472 87.1763 180 87.1763Z" fill="#002033"/>
<path d="M211.185 87.1763H198.412V80.7898C198.412 77.1708 201.18 74.4033 204.799 74.4033C208.418 74.4033 211.185 77.1708 211.185 80.7898V87.1763Z" fill="#002033"/>
<path d="M235.991 87.1763H223.218V80.7898C223.218 77.1708 225.986 74.4033 229.605 74.4033C233.224 74.4033 235.991 77.1708 235.991 80.7898V87.1763Z" fill="#002033"/>
<path d="M260.791 74.4033H248.018V87.1763H260.791V74.4033Z" fill="#002033"/>
<path d="M111.982 86.8071H99.2091V99.5801H111.982V86.8071Z" fill="#002033"/>
<path d="M124.38 86.8071H111.607V99.5801H124.38V86.8071Z" fill="#002033"/>
<path d="M136.782 86.8071H124.009V99.5801H136.782V86.8071Z" fill="#002033"/>
<path d="M198.788 99.5801H192.401C188.782 99.5801 186.015 96.8126 186.015 93.1936C186.015 89.5746 188.782 86.8071 192.401 86.8071H198.788V99.5801Z" fill="#002033"/>
<path d="M211.185 86.8071H198.412V99.5801H211.185V86.8071Z" fill="#002033"/>
<path d="M223.589 86.8071H210.816V99.5801H223.589V86.8071Z" fill="#002033"/>
<path d="M229.605 99.5801H223.218V86.8071H235.991V93.1936C235.991 96.8126 233.224 99.5801 229.605 99.5801Z" fill="#002033"/>
<path d="M254.404 99.5801C250.785 99.5801 248.018 96.8126 248.018 93.1936V86.8071H260.791V93.1936C260.791 96.8126 258.023 99.5801 254.404 99.5801Z" fill="#002033"/>
<path d="M37.5743 111.982H24.8014V105.596C24.8014 101.977 27.5689 99.2091 31.1879 99.2091H37.5743V111.982Z" fill="#002033"/>
<path d="M49.9762 99.2091H37.2032V111.982H49.9762V99.2091Z" fill="#002033"/>
<path d="M62.3782 111.982H49.6052V99.2091H55.9917C59.6107 99.2091 62.3782 101.977 62.3782 105.596V111.982Z" fill="#002033"/>
<path d="M80.7918 111.982C84.3189 111.982 87.1782 109.123 87.1782 105.596C87.1782 102.068 84.3189 99.2091 80.7918 99.2091C77.2646 99.2091 74.4053 102.068 74.4053 105.596C74.4053 109.123 77.2646 111.982 80.7918 111.982Z" fill="#002033"/>
<path d="M105.596 111.982C101.977 111.982 99.2091 109.215 99.2091 105.596V99.2091H111.982V105.596C111.982 109.215 109.215 111.982 105.596 111.982Z" fill="#002033"/>
<path d="M130.396 111.982C126.777 111.982 124.009 109.215 124.009 105.596V99.2091H136.782V105.596C136.782 109.215 134.015 111.982 130.396 111.982Z" fill="#002033"/>
<path d="M173.982 111.982H161.209V105.596C161.209 101.977 163.977 99.2091 167.596 99.2091C171.215 99.2091 173.982 101.977 173.982 105.596V111.982Z" fill="#002033"/>
<path d="M204.799 111.982C201.18 111.982 198.412 109.215 198.412 105.596V99.2091H211.185V105.596C211.185 109.215 208.418 111.982 204.799 111.982Z" fill="#002033"/>
<path d="M273.194 111.982H266.808C263.189 111.982 260.422 109.215 260.422 105.596C260.422 101.977 263.189 99.2091 266.808 99.2091H273.194V111.982Z" fill="#002033"/>
<path d="M285.595 99.2091H272.822V111.982H285.595V99.2091Z" fill="#002033"/>
<path d="M297.993 111.982H285.22V99.2091H291.606C295.225 99.2091 297.993 101.977 297.993 105.596V111.982Z" fill="#002033"/>
<path d="M335.195 111.982H322.422V105.596C322.422 101.977 325.189 99.2091 328.808 99.2091H335.195V111.982Z" fill="#002033"/>
<path d="M347.597 99.2091H334.824V111.982H347.597V99.2091Z" fill="#002033"/>
<path d="M360 111.982H347.227V99.2091H353.613C357.232 99.2091 360 101.977 360 105.596V111.982Z" fill="#002033"/>
<path d="M25.1748 124.378H12.4019V117.992C12.4019 114.373 15.1693 111.605 18.7883 111.605H25.1748V124.378Z" fill="#002033"/>
<path d="M37.5743 111.605H24.8014V124.378H37.5743V111.605Z" fill="#002033"/>
<path d="M49.9762 111.605H37.2032V124.378H49.9762V111.605Z" fill="#002033"/>
<path d="M62.3782 111.605H49.6052V124.378H62.3782V111.605Z" fill="#002033"/>
<path d="M74.7788 124.378H62.0059V111.605H68.3923C72.0113 111.605 74.7788 114.373 74.7788 117.992V124.378Z" fill="#002033"/>
<path d="M93.1936 124.378C96.7208 124.378 99.5801 121.519 99.5801 117.992C99.5801 114.465 96.7208 111.605 93.1936 111.605C89.6665 111.605 86.8071 114.465 86.8071 117.992C86.8071 121.519 89.6665 124.378 93.1936 124.378Z" fill="#002033"/>
<path d="M173.982 124.378H167.596C163.977 124.378 161.209 121.611 161.209 117.992V111.605H173.982V124.378Z" fill="#002033"/>
<path d="M180 124.378H173.613V111.605H180C183.619 111.605 186.386 114.373 186.386 117.992C186.386 121.611 183.619 124.378 180 124.378Z" fill="#002033"/>
<path d="M223.589 124.378H217.203C213.584 124.378 210.816 121.611 210.816 117.992C210.816 114.373 213.584 111.605 217.203 111.605H223.589V124.378Z" fill="#002033"/>
<path d="M235.991 111.605H223.218V124.378H235.991V111.605Z" fill="#002033"/>
<path d="M242.002 124.378H235.616V111.605H242.002C245.621 111.605 248.389 114.373 248.389 117.992C248.389 121.611 245.621 124.378 242.002 124.378Z" fill="#002033"/>
<path d="M285.595 111.605H272.822V124.378H285.595V111.605Z" fill="#002033"/>
<path d="M297.993 111.605H285.22V124.378H297.993V111.605Z" fill="#002033"/>
<path d="M310.395 111.605H297.622V124.378H310.395V111.605Z" fill="#002033"/>
<path d="M322.796 111.605H310.023V124.378H322.796V111.605Z" fill="#002033"/>
<path d="M335.195 111.605H322.422V124.378H335.195V111.605Z" fill="#002033"/>
<path d="M353.613 124.378C349.994 124.378 347.227 121.611 347.227 117.992V111.605H360V117.992C360 121.611 357.232 124.378 353.613 124.378Z" fill="#002033"/>
<path d="M25.1748 124.007H12.4019V136.78H25.1748V124.007Z" fill="#002033"/>
<path d="M31.1879 136.781H24.8014V124.008H37.5743V130.395C37.5743 134.014 34.8069 136.781 31.1879 136.781Z" fill="#002033"/>
<path d="M62.3782 124.008H49.6052V136.781H62.3782V124.008Z" fill="#002033"/>
<path d="M74.7788 124.008H62.0059V136.781H74.7788V124.008Z" fill="#002033"/>
<path d="M80.7918 136.781H74.4053V124.008H80.7918C84.4108 124.008 87.1782 126.776 87.1782 130.395C87.1782 134.014 84.4108 136.781 80.7918 136.781Z" fill="#002033"/>
<path d="M111.982 136.78H105.596C101.977 136.78 99.2091 134.013 99.2091 130.394C99.2091 126.775 101.977 124.007 105.596 124.007H111.982V136.78Z" fill="#002033"/>
<path d="M124.38 136.781H111.607V124.008H117.994C121.613 124.008 124.38 126.776 124.38 130.395V136.781Z" fill="#002033"/>
<path d="M260.791 136.781H248.018V130.395C248.018 126.776 250.785 124.008 254.404 124.008H260.791V136.781Z" fill="#002033"/>
<path d="M273.194 124.008H260.422V136.781H273.194V124.008Z" fill="#002033"/>
<path d="M285.595 124.008H272.822V136.781H285.595V124.008Z" fill="#002033"/>
<path d="M291.606 136.781H285.22V124.008H297.993V130.395C297.993 134.014 295.225 136.781 291.606 136.781Z" fill="#002033"/>
<path d="M322.796 124.007H310.023V136.78H322.796V124.007Z" fill="#002033"/>
<path d="M328.808 136.781H322.422V124.008H335.195V130.395C335.195 134.014 332.427 136.781 328.808 136.781Z" fill="#002033"/>
<path d="M25.1748 136.412H12.4019V149.185H25.1748V136.412Z" fill="#002033"/>
<path d="M49.9762 149.185H37.2032V142.799C37.2032 139.18 39.9707 136.412 43.5897 136.412H49.9762V149.185Z" fill="#002033"/>
<path d="M62.3782 136.412H49.6052V149.185H62.3782V136.412Z" fill="#002033"/>
<path d="M74.7788 136.412H62.0059V149.185H74.7788V136.412Z" fill="#002033"/>
<path d="M99.5801 149.185H86.8071V142.799C86.8071 139.18 89.5746 136.412 93.1936 136.412C96.8126 136.412 99.5801 139.18 99.5801 142.799V149.185Z" fill="#002033"/>
<path d="M124.38 136.412H111.607V149.185H124.38V136.412Z" fill="#002033"/>
<path d="M260.791 149.185H254.404C250.785 149.185 248.018 146.418 248.018 142.799V136.412H260.791V149.185Z" fill="#002033"/>
<path d="M273.194 136.412H260.422V149.185H273.194V136.412Z" fill="#002033"/>
<path d="M279.209 149.185H272.822V136.412H285.595V142.799C285.595 146.418 282.828 149.185 279.209 149.185Z" fill="#002033"/>
<path d="M310.395 149.185H304.008C300.389 149.185 297.622 146.418 297.622 142.799C297.622 139.18 300.389 136.412 304.008 136.412H310.395V149.185Z" fill="#002033"/>
<path d="M316.41 149.185H310.023V136.412H322.796V142.799C322.796 146.418 320.029 149.185 316.41 149.185Z" fill="#002033"/>
<path d="M347.597 149.185H334.824V142.799C334.824 139.18 337.591 136.412 341.21 136.412C344.829 136.412 347.597 139.18 347.597 142.799V149.185Z" fill="#002033"/>
<path d="M12.773 161.587H6.38648C2.76747 161.587 0 158.82 0 155.201C0 151.582 2.76747 148.814 6.38648 148.814H12.773V161.587Z" fill="#002033"/>
<path d="M18.7883 161.587H12.4019V148.814H25.1748V155.201C25.1748 158.82 22.4073 161.587 18.7883 161.587Z" fill="#002033"/>
<path d="M49.9762 161.587H43.5897C39.9707 161.587 37.2032 158.82 37.2032 155.201V148.814H49.9762V161.587Z" fill="#002033"/>
<path d="M62.3782 148.814H49.6052V161.587H62.3782V148.814Z" fill="#002033"/>
<path d="M74.7788 148.814H62.0059V161.587H74.7788V148.814Z" fill="#002033"/>
<path d="M87.1782 148.814H74.4053V161.587H87.1782V148.814Z" fill="#002033"/>
<path d="M93.1936 161.587H86.8071V148.814H99.5801V155.201C99.5801 158.82 96.8126 161.587 93.1936 161.587Z" fill="#002033"/>
<path d="M117.994 161.587C114.375 161.587 111.607 158.82 111.607 155.201V148.814H124.38V155.201C124.38 158.82 121.613 161.587 117.994 161.587Z" fill="#002033"/>
<path d="M273.194 148.814H260.422V161.587H273.194V148.814Z" fill="#002033"/>
<path d="M291.606 161.587C295.133 161.587 297.993 158.728 297.993 155.201C297.993 151.674 295.133 148.814 291.606 148.814C288.079 148.814 285.22 151.674 285.22 155.201C285.22 158.728 288.079 161.587 291.606 161.587Z" fill="#002033"/>
<path d="M335.195 161.587H328.808C325.189 161.587 322.422 158.82 322.422 155.201C322.422 151.582 325.189 148.814 328.808 148.814H335.195V161.587Z" fill="#002033"/>
<path d="M347.597 148.814H334.824V161.587H347.597V148.814Z" fill="#002033"/>
<path d="M360 161.587H347.227V148.814H353.613C357.232 148.814 360 151.582 360 155.201V161.587Z" fill="#002033"/>
<path d="M37.5743 173.982H24.8014V167.596C24.8014 163.977 27.5689 161.209 31.1879 161.209C34.8069 161.209 37.5743 163.977 37.5743 167.596V173.982Z" fill="#002033"/>
<path d="M62.3783 161.209H49.6053V173.982H62.3783V161.209Z" fill="#002033"/>
<path d="M68.3923 173.982H62.0059V161.209H74.7788V167.596C74.7788 171.215 72.0113 173.982 68.3923 173.982Z" fill="#002033"/>
<path d="M105.595 173.982C109.123 173.982 111.982 171.123 111.982 167.596C111.982 164.069 109.123 161.209 105.595 161.209C102.068 161.209 99.209 164.069 99.209 167.596C99.209 171.123 102.068 173.982 105.595 173.982Z" fill="#002033"/>
<path d="M248.389 173.982H242.002C238.383 173.982 235.616 171.215 235.616 167.596C235.616 163.977 238.383 161.209 242.002 161.209H248.389V173.982Z" fill="#002033"/>
<path d="M260.791 161.209H248.018V173.982H260.791V161.209Z" fill="#002033"/>
<path d="M273.194 161.209H260.422V173.982H273.194V161.209Z" fill="#002033"/>
<path d="M279.209 173.982H272.822V161.209H279.209C282.828 161.209 285.595 163.977 285.595 167.596C285.595 171.215 282.828 173.982 279.209 173.982Z" fill="#002033"/>
<path d="M310.395 173.982H304.008C300.389 173.982 297.622 171.215 297.622 167.596C297.622 163.977 300.389 161.209 304.008 161.209H310.395V173.982Z" fill="#002033"/>
<path d="M316.41 173.982H310.023V161.209H316.41C320.029 161.209 322.796 163.977 322.796 167.596C322.796 171.215 320.029 173.982 316.41 173.982Z" fill="#002033"/>
<path d="M347.597 173.982H341.21C337.591 173.982 334.824 171.215 334.824 167.596V161.209H347.597V173.982Z" fill="#002033"/>
<path d="M353.613 173.982H347.227V161.209H360V167.596C360 171.215 357.232 173.982 353.613 173.982Z" fill="#002033"/>
<path d="M25.1748 186.384H12.4019V179.998C12.4019 176.379 15.1693 173.611 18.7883 173.611H25.1748V186.384Z" fill="#002033"/>
<path d="M37.5743 173.611H24.8014V186.384H37.5743V173.611Z" fill="#002033"/>
<path d="M49.9762 173.611H37.2032V186.384H49.9762V173.611Z" fill="#002033"/>
<path d="M62.3782 173.611H49.6052V186.384H62.3782V173.611Z" fill="#002033"/>
<path d="M87.1782 186.384H80.7918C77.1727 186.384 74.4053 183.617 74.4053 179.998C74.4053 176.379 77.1727 173.611 80.7918 173.611H87.1782V186.384Z" fill="#002033"/>
<path d="M93.1936 186.384H86.8071V173.611H93.1936C96.8126 173.611 99.5801 176.379 99.5801 179.998C99.5801 183.617 96.8126 186.384 93.1936 186.384Z" fill="#002033"/>
<path d="M117.994 186.384C121.521 186.384 124.38 183.525 124.38 179.998C124.38 176.47 121.521 173.611 117.994 173.611C114.467 173.611 111.607 176.47 111.607 179.998C111.607 183.525 114.467 186.384 117.994 186.384Z" fill="#002033"/>
<path d="M273.194 173.611H260.422V186.384H273.194V173.611Z" fill="#002033"/>
<path d="M291.606 186.384C295.133 186.384 297.993 183.525 297.993 179.998C297.993 176.47 295.133 173.611 291.606 173.611C288.079 173.611 285.22 176.47 285.22 179.998C285.22 183.525 288.079 186.384 291.606 186.384Z" fill="#002033"/>
<path d="M18.7883 198.787C15.1693 198.787 12.4019 196.02 12.4019 192.401V186.014H25.1748V192.401C25.1748 196.02 22.4073 198.787 18.7883 198.787Z" fill="#002033"/>
<path d="M62.3782 186.014H49.6052V198.787H62.3782V186.014Z" fill="#002033"/>
<path d="M260.791 198.787H254.404C250.785 198.787 248.018 196.02 248.018 192.401C248.018 188.782 250.785 186.014 254.404 186.014H260.791V198.787Z" fill="#002033"/>
<path d="M266.808 198.787H260.422V186.014H273.194V192.401C273.194 196.02 270.427 198.787 266.808 198.787Z" fill="#002033"/>
<path d="M310.395 198.787H304.008C300.389 198.787 297.622 196.02 297.622 192.401C297.622 188.782 300.389 186.014 304.008 186.014H310.395V198.787Z" fill="#002033"/>
<path d="M322.796 198.787H310.023V186.014H316.41C320.029 186.014 322.796 188.782 322.796 192.401V198.787Z" fill="#002033"/>
<path d="M347.597 198.787H341.21C337.591 198.787 334.824 196.02 334.824 192.401C334.824 188.782 337.591 186.014 341.21 186.014H347.597V198.787Z" fill="#002033"/>
<path d="M353.613 198.787H347.227V186.014H353.613C357.232 186.014 360 188.782 360 192.401C360 196.02 357.232 198.787 353.613 198.787Z" fill="#002033"/>
<path d="M12.773 211.186H0V204.799C0 201.18 2.76747 198.413 6.38648 198.413C10.0055 198.413 12.773 201.18 12.773 204.799V211.186Z" fill="#002033"/>
<path d="M49.9762 211.186H37.2032V204.799C37.2032 201.18 39.9707 198.413 43.5897 198.413H49.9762V211.186Z" fill="#002033"/>
<path d="M62.3783 198.413H49.6053V211.186H62.3783V198.413Z" fill="#002033"/>
<path d="M74.7788 198.413H62.0059V211.186H74.7788V198.413Z" fill="#002033"/>
<path d="M87.1782 198.412H74.4053V211.185H87.1782V198.412Z" fill="#002033"/>
<path d="M93.1936 211.185H86.8071V198.412H93.1936C96.8126 198.412 99.5801 201.18 99.5801 204.799C99.5801 208.418 96.8126 211.185 93.1936 211.185Z" fill="#002033"/>
<path d="M124.38 211.185H111.607V204.799C111.607 201.18 114.375 198.412 117.994 198.412C121.613 198.412 124.38 201.18 124.38 204.799V211.185Z" fill="#002033"/>
<path d="M297.993 211.185H285.22V204.799C285.22 201.18 287.987 198.412 291.606 198.412C295.225 198.412 297.993 201.18 297.993 204.799V211.185Z" fill="#002033"/>
<path d="M322.796 198.412H310.023V211.185H322.796V198.412Z" fill="#002033"/>
<path d="M335.195 211.186H322.422V198.413H328.808C332.427 198.413 335.195 201.18 335.195 204.799V211.186Z" fill="#002033"/>
<path d="M12.773 210.814H0V223.587H12.773V210.814Z" fill="#002033"/>
<path d="M37.5743 223.587H31.1879C27.5689 223.587 24.8014 220.82 24.8014 217.201C24.8014 213.582 27.5689 210.814 31.1879 210.814H37.5743V223.587Z" fill="#002033"/>
<path d="M49.9762 210.814H37.2032V223.587H49.9762V210.814Z" fill="#002033"/>
<path d="M68.3923 223.587C64.7733 223.587 62.0059 220.82 62.0059 217.201V210.814H74.7788V217.201C74.7788 220.82 72.0113 223.587 68.3923 223.587Z" fill="#002033"/>
<path d="M117.994 223.587C114.375 223.587 111.607 220.82 111.607 217.201V210.814H124.38V217.201C124.38 220.82 121.613 223.587 117.994 223.587Z" fill="#002033"/>
<path d="M248.389 223.587H242.002C238.383 223.587 235.616 220.82 235.616 217.201C235.616 213.582 238.383 210.814 242.002 210.814H248.389V223.587Z" fill="#002033"/>
<path d="M260.791 210.814H248.018V223.587H260.791V210.814Z" fill="#002033"/>
<path d="M273.194 210.814H260.422V223.587H273.194V210.814Z" fill="#002033"/>
<path d="M285.595 210.814H272.822V223.587H285.595V210.814Z" fill="#002033"/>
<path d="M297.993 210.814H285.22V223.587H297.993V210.814Z" fill="#002033"/>
<path d="M310.395 210.814H297.622V223.587H310.395V210.814Z" fill="#002033"/>
<path d="M322.796 210.814H310.023V223.587H322.796V210.814Z" fill="#002033"/>
<path d="M335.195 210.814H322.422V223.587H335.195V210.814Z" fill="#002033"/>
<path d="M347.597 210.814H334.824V223.587H347.597V210.814Z" fill="#002033"/>
<path d="M353.613 223.587H347.227V210.814H353.613C357.232 210.814 360 213.582 360 217.201C360 220.82 357.232 223.587 353.613 223.587Z" fill="#002033"/>
<path d="M12.773 223.216H0V235.989H12.773V223.216Z" fill="#002033"/>
<path d="M49.9762 223.216H37.2032V235.989H49.9762V223.216Z" fill="#002033"/>
<path d="M80.7918 235.989C84.3189 235.989 87.1782 233.13 87.1782 229.603C87.1782 226.076 84.3189 223.216 80.7918 223.216C77.2646 223.216 74.4053 226.076 74.4053 229.603C74.4053 233.13 77.2646 235.989 80.7918 235.989Z" fill="#002033"/>
<path d="M254.404 235.989C250.785 235.989 248.018 233.222 248.018 229.603V223.216H260.791V229.603C260.791 233.222 258.023 235.989 254.404 235.989Z" fill="#002033"/>
<path d="M285.595 223.216H272.822V235.989H285.595V223.216Z" fill="#002033"/>
<path d="M322.796 223.216H310.023V235.989H322.796V223.216Z" fill="#002033"/>
<path d="M328.808 235.989H322.422V223.216H335.195V229.603C335.195 233.222 332.427 235.989 328.808 235.989Z" fill="#002033"/>
<path d="M12.773 235.616H0V248.389H12.773V235.616Z" fill="#002033"/>
<path d="M37.5743 248.389H24.8014V242.002C24.8014 238.383 27.5689 235.616 31.1879 235.616H37.5743V248.389Z" fill="#002033"/>
<path d="M49.9762 235.616H37.2032V248.389H49.9762V235.616Z" fill="#002033"/>
<path d="M62.3783 235.616H49.6053V248.389H62.3783V235.616Z" fill="#002033"/>
<path d="M68.3923 248.389H62.0059V235.616H68.3923C72.0113 235.616 74.7788 238.383 74.7788 242.002C74.7788 245.621 72.0113 248.389 68.3923 248.389Z" fill="#002033"/>
<path d="M117.994 248.389C121.521 248.389 124.38 245.529 124.38 242.002C124.38 238.475 121.521 235.616 117.994 235.616C114.467 235.616 111.607 238.475 111.607 242.002C111.607 245.529 114.467 248.389 117.994 248.389Z" fill="#002033"/>
<path d="M198.788 248.389H186.015V242.002C186.015 238.383 188.782 235.616 192.401 235.616H198.788V248.389Z" fill="#002033"/>
<path d="M211.185 235.616H198.412V248.389H211.185V235.616Z" fill="#002033"/>
<path d="M223.589 248.389H210.816V235.616H217.203C220.822 235.616 223.589 238.383 223.589 242.002V248.389Z" fill="#002033"/>
<path d="M242.002 248.389C245.529 248.389 248.389 245.529 248.389 242.002C248.389 238.475 245.529 235.616 242.002 235.616C238.475 235.616 235.616 238.475 235.616 242.002C235.616 245.529 238.475 248.389 242.002 248.389Z" fill="#002033"/>
<path d="M285.595 235.616H272.822V248.389H285.595V235.616Z" fill="#002033"/>
<path d="M297.993 248.389H285.22V235.616H291.606C295.225 235.616 297.993 238.383 297.993 242.002V248.389Z" fill="#002033"/>
<path d="M316.41 248.389C312.791 248.389 310.023 245.621 310.023 242.002V235.616H322.796V242.002C322.796 245.621 320.029 248.389 316.41 248.389Z" fill="#002033"/>
<path d="M353.613 248.389C357.14 248.389 360 245.529 360 242.002C360 238.475 357.14 235.616 353.613 235.616C350.086 235.616 347.227 238.475 347.227 242.002C347.227 245.529 350.086 248.389 353.613 248.389Z" fill="#002033"/>
<path d="M6.38648 260.791C2.76747 260.791 0 258.023 0 254.404V248.018H12.773V254.404C12.773 258.023 10.0055 260.791 6.38648 260.791Z" fill="#002033"/>
<path d="M31.1879 260.791C27.5689 260.791 24.8014 258.023 24.8014 254.404V248.018H37.5743V254.404C37.5743 258.023 34.8069 260.791 31.1879 260.791Z" fill="#002033"/>
<path d="M80.7918 260.791C84.3189 260.791 87.1782 257.931 87.1782 254.404C87.1782 250.877 84.3189 248.018 80.7918 248.018C77.2646 248.018 74.4053 250.877 74.4053 254.404C74.4053 257.931 77.2646 260.791 80.7918 260.791Z" fill="#002033"/>
<path d="M149.185 260.791H136.412V254.404C136.412 250.785 139.18 248.018 142.799 248.018H149.185V260.791Z" fill="#002033"/>
<path d="M155.201 260.791H148.814V248.018H155.201C158.82 248.018 161.587 250.785 161.587 254.404C161.587 258.023 158.82 260.791 155.201 260.791Z" fill="#002033"/>
<path d="M198.788 248.018H186.015V260.791H198.788V248.018Z" fill="#002033"/>
<path d="M217.203 260.791C213.584 260.791 210.816 258.023 210.816 254.404V248.018H223.589V254.404C223.589 258.023 220.822 260.791 217.203 260.791Z" fill="#002033"/>
<path d="M260.791 260.791H248.018V254.404C248.018 250.785 250.785 248.018 254.404 248.018H260.791V260.791Z" fill="#002033"/>
<path d="M273.194 248.018H260.422V260.791H273.194V248.018Z" fill="#002033"/>
<path d="M285.595 248.018H272.822V260.791H285.595V248.018Z" fill="#002033"/>
<path d="M297.993 248.018H285.22V260.791H297.993V248.018Z" fill="#002033"/>
<path d="M310.395 260.791H297.622V248.018H304.008C307.627 248.018 310.395 250.785 310.395 254.404V260.791Z" fill="#002033"/>
<path d="M328.808 260.791C332.335 260.791 335.195 257.931 335.195 254.404C335.195 250.877 332.335 248.018 328.808 248.018C325.281 248.018 322.422 250.877 322.422 254.404C322.422 257.931 325.281 260.791 328.808 260.791Z" fill="#002033"/>
<path d="M111.982 273.193H105.596C101.977 273.193 99.2091 270.425 99.2091 266.806C99.2091 263.187 101.977 260.42 105.596 260.42H111.982V273.193Z" fill="#002033"/>
<path d="M124.38 273.193H111.607V260.42H117.994C121.613 260.42 124.38 263.187 124.38 266.806V273.193Z" fill="#002033"/>
<path d="M149.185 260.42H136.412V273.193H149.185V260.42Z" fill="#002033"/>
<path d="M186.386 273.193H180C176.381 273.193 173.613 270.425 173.613 266.806C173.613 263.187 176.381 260.42 180 260.42H186.386V273.193Z" fill="#002033"/>
<path d="M192.401 273.193H186.015V260.42H198.788V266.806C198.788 270.425 196.02 273.193 192.401 273.193Z" fill="#002033"/>
<path d="M260.791 260.42H248.018V273.193H260.791V260.42Z" fill="#002033"/>
<path d="M310.395 260.42H297.622V273.193H310.395V260.42Z" fill="#002033"/>
<path d="M316.41 273.193H310.023V260.42H316.41C320.029 260.42 322.796 263.187 322.796 266.806C322.796 270.425 320.029 273.193 316.41 273.193Z" fill="#002033"/>
<path d="M347.597 273.193H341.21C337.591 273.193 334.824 270.425 334.824 266.806C334.824 263.187 337.591 260.42 341.21 260.42H347.597V273.193Z" fill="#002033"/>
<path d="M353.613 273.193H347.227V260.42H353.613C357.232 260.42 360 263.187 360 266.806C360 270.425 357.232 273.193 353.613 273.193Z" fill="#002033"/>
<path d="M117.994 285.594C114.375 285.594 111.607 282.827 111.607 279.208V272.822H124.38V279.208C124.38 282.827 121.613 285.594 117.994 285.594Z" fill="#002033"/>
<path d="M149.185 272.822H136.412V285.594H149.185V272.822Z" fill="#002033"/>
<path d="M155.201 285.594H148.814V272.822H155.201C158.82 272.822 161.587 275.589 161.587 279.208C161.587 282.827 158.82 285.594 155.201 285.594Z" fill="#002033"/>
<path d="M211.185 285.594H198.412V279.208C198.412 275.589 201.18 272.822 204.799 272.822H211.185V285.594Z" fill="#002033"/>
<path d="M223.589 272.822H210.816V285.594H223.589V272.822Z" fill="#002033"/>
<path d="M235.991 272.822H223.218V285.594H235.991V272.822Z" fill="#002033"/>
<path d="M248.389 272.822H235.616V285.594H248.389V272.822Z" fill="#002033"/>
<path d="M260.791 272.822H248.018V285.594H260.791V272.822Z" fill="#002033"/>
<path d="M279.209 285.594C282.736 285.594 285.595 282.735 285.595 279.208C285.595 275.681 282.736 272.822 279.209 272.822C275.682 272.822 272.822 275.681 272.822 279.208C272.822 282.735 275.682 285.594 279.209 285.594Z" fill="#002033"/>
<path d="M310.395 272.822H297.622V285.594H310.395V272.822Z" fill="#002033"/>
<path d="M142.799 297.992C139.18 297.992 136.412 295.225 136.412 291.606V285.219H149.185V291.606C149.185 295.225 146.418 297.992 142.799 297.992Z" fill="#002033"/>
<path d="M186.386 297.993H180C176.381 297.993 173.613 295.225 173.613 291.606C173.613 287.987 176.381 285.22 180 285.22H186.386V297.993Z" fill="#002033"/>
<path d="M198.788 285.22H186.015V297.993H198.788V285.22Z" fill="#002033"/>
<path d="M211.185 285.22H198.412V297.993H211.185V285.22Z" fill="#002033"/>
<path d="M223.589 285.22H210.816V297.993H223.589V285.22Z" fill="#002033"/>
<path d="M235.991 285.22H223.218V297.993H235.991V285.22Z" fill="#002033"/>
<path d="M248.389 285.22H235.616V297.993H248.389V285.22Z" fill="#002033"/>
<path d="M260.791 285.22H248.018V297.993H260.791V285.22Z" fill="#002033"/>
<path d="M310.395 285.22H297.622V297.993H310.395V285.22Z" fill="#002033"/>
<path d="M322.796 297.993H310.023V285.22H316.41C320.029 285.22 322.796 287.987 322.796 291.606V297.993Z" fill="#002033"/>
<path d="M111.982 310.395H99.209V304.008C99.209 300.389 101.976 297.622 105.595 297.622C109.214 297.622 111.982 300.389 111.982 304.008V310.395Z" fill="#002033"/>
<path d="M136.782 310.395H124.009V304.008C124.009 300.389 126.777 297.622 130.396 297.622C134.015 297.622 136.782 300.389 136.782 304.008V310.395Z" fill="#002033"/>
<path d="M167.596 310.395C171.123 310.395 173.982 307.535 173.982 304.008C173.982 300.481 171.123 297.622 167.596 297.622C164.069 297.622 161.209 300.481 161.209 304.008C161.209 307.535 164.069 310.395 167.596 310.395Z" fill="#002033"/>
<path d="M204.799 310.395C201.18 310.395 198.412 307.627 198.412 304.008V297.622H211.185V304.008C211.185 307.627 208.418 310.395 204.799 310.395Z" fill="#002033"/>
<path d="M260.791 297.622H248.018V310.395H260.791V297.622Z" fill="#002033"/>
<path d="M273.194 297.622H260.422V310.395H273.194V297.622Z" fill="#002033"/>
<path d="M285.595 297.622H272.822V310.395H285.595V297.622Z" fill="#002033"/>
<path d="M297.993 297.622H285.22V310.395H297.993V297.622Z" fill="#002033"/>
<path d="M310.395 297.622H297.622V310.395H310.395V297.622Z" fill="#002033"/>
<path d="M322.796 297.622H310.023V310.395H322.796V297.622Z" fill="#002033"/>
<path d="M335.195 297.622H322.422V310.395H335.195V297.622Z" fill="#002033"/>
<path d="M347.597 297.622H334.824V310.395H347.597V297.622Z" fill="#002033"/>
<path d="M353.613 310.395H347.227V297.622H353.613C357.232 297.622 360 300.389 360 304.008C360 307.627 357.232 310.395 353.613 310.395Z" fill="#002033"/>
<path d="M111.982 310.023H99.2091V322.796H111.982V310.023Z" fill="#002033"/>
<path d="M124.38 310.023H111.607V322.796H124.38V310.023Z" fill="#002033"/>
<path d="M136.782 310.023H124.009V322.796H136.782V310.023Z" fill="#002033"/>
<path d="M149.185 310.023H136.412V322.796H149.185V310.023Z" fill="#002033"/>
<path d="M155.201 322.796H148.814V310.023H155.201C158.82 310.023 161.587 312.791 161.587 316.41C161.587 320.029 158.82 322.796 155.201 322.796Z" fill="#002033"/>
<path d="M223.589 322.796H210.816V316.41C210.816 312.791 213.584 310.023 217.203 310.023H223.589V322.796Z" fill="#002033"/>
<path d="M235.991 310.023H223.218V322.796H235.991V310.023Z" fill="#002033"/>
<path d="M248.389 310.023H235.616V322.796H248.389V310.023Z" fill="#002033"/>
<path d="M260.791 310.023H248.018V322.796H260.791V310.023Z" fill="#002033"/>
<path d="M273.194 310.023H260.422V322.796H273.194V310.023Z" fill="#002033"/>
<path d="M297.993 310.023H285.22V322.796H297.993V310.023Z" fill="#002033"/>
<path d="M316.41 322.796C312.791 322.796 310.023 320.029 310.023 316.41V310.023H322.796V316.41C322.796 320.029 320.029 322.796 316.41 322.796Z" fill="#002033"/>
<path d="M105.596 335.195C101.977 335.195 99.2091 332.427 99.2091 328.808V322.422H111.982V328.808C111.982 332.427 109.215 335.195 105.596 335.195Z" fill="#002033"/>
<path d="M142.799 335.195C139.18 335.195 136.412 332.427 136.412 328.808V322.422H149.185V328.808C149.185 332.427 146.418 335.195 142.799 335.195Z" fill="#002033"/>
<path d="M198.788 335.195H186.015V328.808C186.015 325.189 188.782 322.422 192.401 322.422C196.02 322.422 198.788 325.189 198.788 328.808V335.195Z" fill="#002033"/>
<path d="M223.589 322.422H210.816V335.195H223.589V322.422Z" fill="#002033"/>
<path d="M248.389 335.195H242.002C238.383 335.195 235.616 332.427 235.616 328.808V322.422H248.389V335.195Z" fill="#002033"/>
<path d="M260.791 322.422H248.018V335.195H260.791V322.422Z" fill="#002033"/>
<path d="M273.194 322.422H260.422V335.195H273.194V322.422Z" fill="#002033"/>
<path d="M285.595 322.422H272.822V335.195H285.595V322.422Z" fill="#002033"/>
<path d="M297.993 322.422H285.22V335.195H297.993V322.422Z" fill="#002033"/>
<path d="M310.395 335.195H297.622V322.422H304.008C307.627 322.422 310.395 325.189 310.395 328.808V335.195Z" fill="#002033"/>
<path d="M347.597 335.195H334.824V328.808C334.824 325.189 337.591 322.422 341.21 322.422C344.829 322.422 347.597 325.189 347.597 328.808V335.195Z" fill="#002033"/>
<path d="M124.38 347.598H111.607V341.211C111.607 337.592 114.375 334.825 117.994 334.825C121.613 334.825 124.38 337.592 124.38 341.211V347.598Z" fill="#002033"/>
<path d="M173.982 347.598H161.209V341.211C161.209 337.592 163.977 334.825 167.596 334.825H173.982V347.598Z" fill="#002033"/>
<path d="M186.386 334.825H173.613V347.598H186.386V334.825Z" fill="#002033"/>
<path d="M198.788 334.825H186.015V347.598H198.788V334.825Z" fill="#002033"/>
<path d="M211.185 334.825H198.412V347.598H211.185V334.825Z" fill="#002033"/>
<path d="M223.589 334.825H210.816V347.598H223.589V334.825Z" fill="#002033"/>
<path d="M260.791 347.598H254.404C250.785 347.598 248.018 344.83 248.018 341.211V334.825H260.791V347.598Z" fill="#002033"/>
<path d="M266.808 347.598H260.422V334.825H273.194V341.211C273.194 344.83 270.427 347.598 266.808 347.598Z" fill="#002033"/>
<path d="M310.395 334.825H297.622V347.598H310.395V334.825Z" fill="#002033"/>
<path d="M341.21 347.598C337.591 347.598 334.824 344.83 334.824 341.211V334.825H347.597V341.211C347.597 344.83 344.829 347.598 341.21 347.598Z" fill="#002033"/>
<path d="M117.994 360C114.375 360 111.607 357.232 111.607 353.613V347.227H124.38V353.613C124.38 357.232 121.613 360 117.994 360Z" fill="#002033"/>
<path d="M167.596 360C163.977 360 161.209 357.232 161.209 353.613V347.227H173.982V353.613C173.982 357.232 171.215 360 167.596 360Z" fill="#002033"/>
<path d="M198.788 360H192.401C188.782 360 186.015 357.232 186.015 353.613V347.227H198.788V360Z" fill="#002033"/>
<path d="M211.185 347.227H198.412V360H211.185V347.227Z" fill="#002033"/>
<path d="M217.203 360H210.816V347.227H223.589V353.613C223.589 357.232 220.822 360 217.203 360Z" fill="#002033"/>
<path d="M242.002 360C245.529 360 248.389 357.14 248.389 353.613C248.389 350.086 245.529 347.227 242.002 347.227C238.475 347.227 235.616 350.086 235.616 353.613C235.616 357.14 238.475 360 242.002 360Z" fill="#002033"/>
<path d="M304.008 360C300.389 360 297.622 357.232 297.622 353.613V347.227H310.395V353.613C310.395 357.232 307.627 360 304.008 360Z" fill="#002033"/>
<path d="M328.808 360C332.335 360 335.195 357.141 335.195 353.613C335.195 350.086 332.335 347.227 328.808 347.227C325.281 347.227 322.422 350.086 322.422 353.613C322.422 357.141 325.281 360 328.808 360Z" fill="#002033"/>
<path d="M27.9021 86.8072H59.5244C74.4056 86.8072 86.8065 74.4063 86.8065 59.5252V27.9028C86.8065 12.4017 74.4056 0.000732422 58.9044 0.000732422H27.282C12.4009 0.000732422 0 12.4017 0 27.2828V58.9051C0 74.4063 12.4009 86.8072 27.9021 86.8072ZM74.4056 29.763V57.045C74.4056 66.3457 66.3449 74.4063 57.0443 74.4063H29.7622C19.8415 74.4063 12.4009 66.9657 12.4009 57.045V29.763C12.4009 20.4623 20.4615 12.4017 29.7622 12.4017H57.0443C66.965 12.4017 74.4056 19.8422 74.4056 29.763Z" fill="#002033"/>
<path d="M300.725 86.8072H332.348C347.229 86.8072 359.63 74.4063 359.63 59.5252V27.9028C359.63 12.4017 347.229 0.000732422 331.728 0.000732422H300.105C285.224 0.000732422 272.823 12.4017 272.823 27.2828V58.9051C272.823 74.4063 285.224 86.8072 300.725 86.8072ZM347.229 29.763V57.045C347.229 66.3457 339.168 74.4063 329.867 74.4063H302.585C292.665 74.4063 285.224 66.9657 285.224 57.045V29.763C285.224 20.4623 293.285 12.4017 302.585 12.4017H329.867C339.788 12.4017 347.229 19.8422 347.229 29.763Z" fill="#002033"/>
<path d="M27.9021 359.632H59.5244C74.4056 359.632 86.8065 347.231 86.8065 332.35V300.728C86.8065 285.226 74.4056 272.826 58.9044 272.826H27.282C12.4009 272.826 0 285.226 0 300.108V331.73C0 347.231 12.4009 359.632 27.9021 359.632ZM74.4056 302.588V329.87C74.4056 339.171 66.3449 347.231 57.0443 347.231H29.7622C19.8415 347.231 12.4009 339.791 12.4009 329.87V302.588C12.4009 293.287 20.4615 285.226 29.7622 285.226H57.0443C66.965 285.226 74.4056 292.667 74.4056 302.588Z" fill="#002033"/>
<path d="M62.0044 35.343V52.0843C62.0044 57.0447 57.044 62.005 51.4636 62.005H35.3424C29.142 62.005 24.8016 57.6647 24.8016 51.4642V35.343C24.8016 29.7626 29.762 24.8022 35.3424 24.8022H52.0837C57.6641 24.8022 62.0044 29.1426 62.0044 35.343Z" fill="#002033"/>
<path d="M334.824 35.343V52.0843C334.824 57.0447 329.863 62.005 324.283 62.005H308.162C301.961 62.005 297.621 57.6647 297.621 51.4642V35.343C297.621 29.7626 302.581 24.8022 308.162 24.8022H324.903C330.483 24.8022 334.824 29.1426 334.824 35.343Z" fill="#002033"/>
<path d="M62.0044 308.162V324.904C62.0044 329.864 57.044 334.824 51.4636 334.824H35.3424C29.142 334.824 24.8016 330.484 24.8016 324.284V308.162C24.8016 302.582 29.762 297.622 35.3424 297.622H52.0837C57.6641 297.622 62.0044 301.962 62.0044 308.162Z" fill="#002033"/>
<defs>
<clipPath id="clip0_1_332">
<rect width="77" height="77" fill="white" transform="translate(141 142)"/>
</clipPath>
</defs>
</svg>
