<?xml version="1.0" encoding="utf-8"?><svg viewBox="0 0 818 27" xmlns="http://www.w3.org/2000/svg" xmlns:xlink="http://www.w3.org/1999/xlink"><style>:root>svg{display:none}:root>svg:target{display:block}</style><svg viewBox="0 0 260 11" id="border-bottom-delivery" xmlns="http://www.w3.org/2000/svg"><path d="M1 6.818c13.159 2.718 26.52 3.386 39.912 3.132 12.631-.239 24.929-1.74 37.43-3.452 6.276-.86 12.536-1.242 18.818-1.993 11.275-1.347 22.954-.57 34.294-.57h43.806c13.649 0 27.577.802 41.187-.32 9.71-.8 19.408-1.863 29.158-1.922 3.873-.023 15.488-.32 11.615-.32a16.03 16.03 0 00-4.515.659c-3.414 1.007-7.044.883-10.581 1.601-11.478 2.332-22.895 1.904-34.552 1.904-7.62 0-15.08 1.129-22.661 1.744-9.088.737-18.153.819-27.263.819-11.433 0-22.861.316-34.242-.98-14.473-1.646-29.004-2.552-43.496-3.967-15.603-1.525-31.17-2.1-46.84-2.1H10.46c-.652 0-4.598-.218-3.394.231 6.459 2.409 12.93 4.278 19.646 5.82 20.095 4.61 41.512 2.026 61.763.035"/></svg><svg viewBox="0 0 818 27" id="border-bottom-header" xmlns="http://www.w3.org/2000/svg"><path d="M816 9.318c-6.482 0-11.889 3.137-18.607 3.137-3.52 0-10.576 1.355-13.661-.581-3.078-1.932-5.952-4.453-9.127-6.215-5.136-2.85-17.516-2.56-23.259-1.336-11.503 2.454-22.949 6.46-34.152 10.223-6.489 2.178-18.595 5.477-24.731 1.626-4.852-3.046-10.426-6.854-16.369-6.854-15.043 0-28.635.794-43.456 3.717-9.055 1.787-18.433 2.334-27.557 3.834-4.762.782-10.026 1.765-14.839 1.858-7.784.15-15.231-.319-22.788-1.103-2.288-.238-6.377-2.45-8.479-3.601-2.481-1.36-6.951-.523-9.715-.523-5.102 0-10.988-.738-16.017.232-4.502.87-9.011 3.065-13.543 4.182-3.758.927-8.3 3.705-11.894 3.95-5 .34-9.75-1.942-14.25-3.718-8.864-3.497-16.279-8.828-26.262-8.828h-12.777c-6.411 0-11.718 3.45-18.019 4.182-13.75 1.596-26.492 8.914-40.747 7.26-4.046-.47-7.721-3.078-11.717-3.078-4.424 0-7.87-3.698-12.189-4.124-6.025-.594-13.552-4.469-20.079-1.684-4.311 1.838-9.134 4.126-13.543 5.575-3.58 1.177-8.127 3.472-11.895 3.37-10.031-.276-17.553-9.318-26.438-12.604-3.766-1.393-6.433-3.198-10.658-4.124C283.261 2.782 278.575 2 272.332 2c-6.966 0-13.786 1.698-20.432 3.601-5.76 1.65-12.452 2.361-17.429 5.808-4.752 3.29-11.246 4.355-15.781 7.55-3.809 2.684-5.011 3.046-10.01 2.905-5.619-.159-13.605-7.769-18.49-10.397-6.108-3.287-12.864-4.24-19.725-4.24-12.002 0-24.434 3.508-34.094 10.92-8.838 6.78-16.007 4.597-25.437.58-4.595-1.957-8.547-4.708-13.013-6.795-3.337-1.56-7.604-2.323-10.658-4.24-7.413-4.653-12.389-1.567-18.607 3.252-3.95 3.062-11.086 10.24-16.84 7.55-6.621-3.092-10.148-9.176-18.02-9.176-7.235 0-14.187.277-21.197 1.046-2.318.254-6.617 5.145-7.184 7.318C4.645 20.639 2 22.138 2 25"/></svg><svg viewBox="0 0 818 27" id="border-bottom-iphone" xmlns="http://www.w3.org/2000/svg"><path d="M2 17.682c6.482 0 11.889-3.136 18.607-3.136 3.52 0 10.576-1.356 13.66.58 3.08 1.932 5.953 4.453 9.128 6.215 5.136 2.85 17.516 2.56 23.259 1.336 11.503-2.454 22.95-6.46 34.152-10.223 6.489-2.179 18.595-5.477 24.731-1.626 4.852 3.046 10.426 6.854 16.369 6.854 15.043 0 28.635-.794 43.456-3.717 9.055-1.787 18.433-2.334 27.557-3.834 4.762-.783 10.026-1.765 14.839-1.858 7.784-.15 15.231.319 22.788 1.103 2.288.238 6.377 2.45 8.479 3.601 2.481 1.36 6.951.523 9.715.523 5.102 0 10.988.738 16.017-.232 4.502-.87 9.011-3.065 13.543-4.182 3.758-.927 8.3-3.705 11.894-3.95 5-.34 9.75 1.942 14.25 3.718 8.864 3.497 16.279 8.828 26.262 8.828h12.777c6.411 0 11.718-3.45 18.019-4.182 13.75-1.596 26.492-8.914 40.747-7.26 4.046.47 7.721 3.078 11.717 3.078 4.424 0 7.87 3.698 12.189 4.124 6.025.594 13.552 4.469 20.079 1.684 4.311-1.838 9.134-4.126 13.543-5.575 3.58-1.177 8.127-3.472 11.895-3.37 10.031.276 17.553 9.318 26.438 12.604 3.766 1.393 6.433 3.198 10.658 4.124 5.971 1.309 10.657 2.091 16.9 2.091 6.967 0 13.786-1.698 20.432-3.601 5.76-1.65 12.452-2.361 17.429-5.808 4.752-3.29 11.246-4.355 15.781-7.55 3.809-2.684 5.011-3.046 10.01-2.905 5.619.159 13.605 7.769 18.49 10.397 6.108 3.287 12.864 4.24 19.725 4.24 12.002 0 24.434-3.508 34.094-10.92 8.838-6.78 16.007-4.597 25.437-.58 4.595 1.957 8.547 4.708 13.013 6.795 3.337 1.56 7.604 2.323 10.658 4.24 7.413 4.653 12.389 1.567 18.607-3.252 3.951-3.062 11.086-10.24 16.841-7.551 6.62 3.093 10.147 9.177 18.018 9.177 7.236 0 14.188-.277 21.198-1.046 2.318-.254 6.617-5.145 7.184-7.318C813.356 6.361 816 4.862 816 2"/></svg><svg viewBox="0 0 818 27" id="border-top" xmlns="http://www.w3.org/2000/svg"><path d="M2 17.682c6.482 0 11.889-3.136 18.607-3.136 3.52 0 10.576-1.356 13.66.58 3.08 1.932 5.953 4.453 9.128 6.215 5.136 2.85 17.516 2.56 23.259 1.336 11.503-2.454 22.95-6.46 34.152-10.223 6.489-2.179 18.595-5.477 24.731-1.626 4.852 3.046 10.426 6.854 16.369 6.854 15.043 0 28.635-.794 43.456-3.717 9.055-1.787 18.433-2.334 27.557-3.834 4.762-.783 10.026-1.765 14.839-1.858 7.784-.15 15.231.319 22.788 1.103 2.288.238 6.377 2.45 8.479 3.601 2.481 1.36 6.951.523 9.715.523 5.102 0 10.988.738 16.017-.232 4.502-.87 9.011-3.065 13.543-4.182 3.758-.927 8.3-3.705 11.894-3.95 5-.34 9.75 1.942 14.25 3.718 8.864 3.497 16.279 8.828 26.262 8.828h12.777c6.411 0 11.718-3.45 18.019-4.182 13.75-1.596 26.492-8.914 40.747-7.26 4.046.47 7.721 3.078 11.717 3.078 4.424 0 7.87 3.698 12.189 4.124 6.025.594 13.552 4.469 20.079 1.684 4.311-1.838 9.134-4.126 13.543-5.575 3.58-1.177 8.127-3.472 11.895-3.37 10.031.276 17.553 9.318 26.438 12.604 3.766 1.393 6.433 3.198 10.658 4.124 5.971 1.309 10.657 2.091 16.9 2.091 6.967 0 13.786-1.698 20.432-3.601 5.76-1.65 12.452-2.361 17.429-5.808 4.752-3.29 11.246-4.355 15.781-7.55 3.809-2.684 5.011-3.046 10.01-2.905 5.619.159 13.605 7.769 18.49 10.397 6.108 3.287 12.864 4.24 19.725 4.24 12.002 0 24.434-3.508 34.094-10.92 8.838-6.78 16.007-4.597 25.437-.58 4.595 1.957 8.547 4.708 13.013 6.795 3.337 1.56 7.604 2.323 10.658 4.24 7.413 4.653 12.389 1.567 18.607-3.252 3.951-3.062 11.086-10.24 16.841-7.551 6.62 3.093 10.147 9.177 18.018 9.177 7.236 0 14.188-.277 21.198-1.046 2.318-.254 6.617-5.145 7.184-7.318C813.356 6.361 816 4.862 816 2"/></svg></svg>