<svg width="900" height="87" viewBox="0 0 900 87" fill="none" xmlns="http://www.w3.org/2000/svg">
<path d="M-273.073 80.0496C-263.741 79.6041 -256.169 74.7831 -246.497 74.3214C-241.428 74.0795 -231.362 71.6715 -226.79 74.2065C-222.227 76.7361 -217.92 80.1146 -213.229 82.3956C-205.641 86.0857 -187.838 84.8243 -179.653 82.6922C-163.257 78.4211 -147.05 71.9498 -131.176 65.8434C-121.981 62.3062 -104.775 56.795 -95.6814 61.8366C-88.4891 65.8241 -80.206 70.8427 -71.6501 70.4343C-49.9931 69.4005 -30.4784 67.3408 -9.33875 62.1744C3.57745 59.0178 17.0415 57.5974 30.0758 54.8424C36.8783 53.4046 44.3909 51.6487 51.313 51.1859C62.5096 50.4374 73.2627 50.5916 84.1952 51.1853C87.5065 51.3652 93.5424 54.2216 96.6465 55.7111C100.311 57.4696 106.689 55.975 110.67 55.785C118.014 55.4344 126.539 56.0768 133.712 54.3546C140.135 52.8126 146.478 49.3881 152.927 47.4914C158.275 45.9184 164.627 41.6648 169.784 41.071C176.959 40.245 183.953 43.1557 190.551 45.365C203.55 49.7175 214.586 56.7703 228.958 56.0843C235.09 55.7915 241.222 55.4988 247.354 55.2061C256.583 54.7655 263.99 49.5055 273.011 48.0353C292.7 44.8265 310.549 33.5684 331.183 34.9354C337.04 35.3234 342.508 38.7717 348.262 38.4971C354.631 38.193 359.842 43.2019 366.089 43.5095C374.803 43.9384 385.902 48.9175 395.111 44.519C401.193 41.6143 407.981 38.0382 414.232 35.6782C419.305 33.7627 425.697 30.1943 431.128 30.0818C445.589 29.7823 457.03 42.0928 470.045 46.1447C475.56 47.8618 479.522 50.2388 485.668 51.2623C494.353 52.7087 501.152 53.4961 510.14 53.0671C520.17 52.5883 529.873 49.711 539.312 46.5543C547.494 43.8184 557.08 42.3491 564.012 37.1169C570.63 32.1218 579.907 30.1658 586.22 25.3209C591.522 21.2524 593.228 20.6568 600.435 20.5131C608.535 20.3516 620.548 30.5987 627.758 33.9913C636.776 38.2341 646.566 39.122 656.444 38.6505C673.724 37.8256 691.383 31.9943 704.789 20.817C717.054 10.5903 727.523 13.1945 741.372 18.2448C748.12 20.7056 753.996 24.3373 760.567 26.9907C765.476 28.9729 771.672 29.7634 776.198 32.2731C787.186 38.3649 794.141 33.6444 802.767 26.3802C808.247 21.7652 818.033 11.0924 826.501 14.5113C836.241 18.4444 841.731 26.8325 853.063 26.2915C863.48 25.7942 873.47 24.9233 883.511 23.3515C886.831 22.8319 892.689 15.5978 893.358 12.476C894.267 8.22841 897.973 5.91936 897.779 1.8594" stroke="#002033" stroke-width="3" stroke-linecap="round"/>
</svg>
