<svg width="1251" height="136" viewBox="0 0 1251 136" fill="none" xmlns="http://www.w3.org/2000/svg">
<path d="M1249.32 9.5533C1234.4 10.2655 1222.29 17.9043 1206.83 18.6424C1198.73 19.0292 1182.63 22.8491 1175.33 18.8387C1168.04 14.8367 1161.15 9.49045 1153.66 5.88226C1141.53 0.0449939 1113.07 2.05515 1099.98 5.43705C1073.77 12.2116 1047.86 22.4699 1022.48 32.1501C1007.77 37.7575 980.266 46.4962 965.732 38.5201C954.238 32.2117 941 24.2714 927.323 24.9243C892.702 26.577 861.504 29.8524 827.707 38.048C807.058 43.0555 785.533 45.3144 764.695 49.686C753.82 51.9675 741.809 54.7532 730.743 55.4909C712.844 56.6843 695.655 56.4479 678.179 55.5158C672.885 55.2335 663.239 50.7151 658.278 48.3589C652.421 45.5773 642.224 47.9485 635.861 48.2522C624.12 48.8127 610.492 47.8017 599.024 50.5337C588.755 52.98 578.613 58.4068 568.303 61.4147C559.753 63.9091 549.596 70.6488 541.351 71.5927C529.881 72.9059 518.703 68.3022 508.157 64.8089C487.38 57.9268 469.744 46.7676 446.768 47.8644C436.966 48.3323 427.163 48.8003 417.36 49.2682C402.606 49.9725 390.762 58.3064 376.34 60.6409C344.863 65.7358 316.323 83.5745 283.338 81.425C273.976 80.8149 265.237 75.359 256.039 75.7981C245.858 76.2841 237.531 68.357 227.545 67.8746C213.616 67.2017 195.877 59.3261 181.152 66.2973C171.428 70.9009 160.574 76.5681 150.58 80.3093C142.468 83.346 132.248 89.0007 123.566 89.1828C100.449 89.6675 82.1685 70.1839 61.3661 63.7778C52.5501 61.0629 46.2187 57.3022 36.3948 55.6861C22.5118 53.4023 11.6442 52.1604 -2.72364 52.8463C-18.758 53.6117 -34.2713 58.1745 -49.3631 63.1796C-62.4432 67.5175 -77.7685 69.8509 -88.8542 78.1404C-99.4374 86.0543 -114.268 89.1581 -124.364 96.8339C-132.842 103.28 -135.569 104.224 -147.091 104.457C-160.04 104.718 -179.235 88.5022 -190.759 83.1358C-205.171 76.4244 -220.822 75.0256 -236.613 75.7795C-264.236 77.0981 -292.47 86.3439 -313.908 104.052C-333.523 120.253 -350.256 116.137 -372.391 108.151C-383.177 104.259 -392.566 98.5134 -403.069 94.3168C-410.915 91.1819 -420.819 89.9347 -428.053 85.9642C-445.614 76.3267 -456.734 83.806 -470.529 95.3142C-479.293 102.625 -494.945 119.531 -508.478 114.124C-524.046 107.904 -532.816 94.6265 -550.931 95.4912C-567.584 96.2862 -583.554 97.6724 -599.606 100.168C-604.914 100.994 -614.284 112.452 -615.355 117.396C-616.812 124.122 -622.737 127.78 -622.431 134.209" stroke="#002033" stroke-width="3" stroke-linecap="round"/>
</svg>
