<svg width="937" height="107" viewBox="0 0 937 107" fill="none" xmlns="http://www.w3.org/2000/svg">
<path d="M935.126 7.9767C923.65 8.52451 914.344 14.5431 902.449 15.1109C896.217 15.4084 883.84 18.4085 878.215 15.2355C872.602 12.0692 867.301 7.84207 861.531 4.98644C852.196 0.36665 830.304 1.92608 820.24 4.58324C800.082 9.90597 780.158 17.9792 760.643 25.5965C749.339 30.009 728.185 36.8811 716.997 30.5704C708.149 25.5794 697.958 19.2983 687.437 19.8005C660.805 21.0718 636.809 23.6274 610.817 30.0647C594.937 33.9979 578.381 35.7603 562.355 39.1913C553.991 40.9819 544.754 43.1694 536.242 43.7412C522.474 44.666 509.25 44.4628 495.805 43.7101C491.733 43.4821 484.308 39.9059 480.489 38.0411C475.981 35.8395 468.139 37.7016 463.244 37.9352C454.213 38.3664 443.728 37.5551 434.909 39.7008C427.012 41.622 419.214 45.8963 411.286 48.2609C404.711 50.2219 396.904 55.5326 390.563 56.2698C381.741 57.2954 373.137 53.6503 365.02 50.8824C349.031 45.4295 335.453 36.6031 317.779 37.4467C310.239 37.8067 302.698 38.1667 295.158 38.5266C283.809 39.0684 274.705 45.636 263.612 47.465C239.403 51.4567 217.465 65.5116 192.089 63.7829C184.886 63.2922 178.158 58.9768 171.083 59.3145C163.251 59.6884 156.838 53.4225 149.155 53.032C138.439 52.4874 124.785 46.2531 113.464 51.7421C105.989 55.3669 97.6441 59.8304 89.9598 62.7741C83.7226 65.1636 75.866 69.6177 69.1872 69.753C51.4044 70.1134 37.3227 54.7149 21.3138 49.6377C14.5292 47.4859 9.65501 44.5111 2.09615 43.2258C-8.58595 41.4095 -16.9473 40.4186 -27.9995 40.9462C-40.3336 41.535 -52.2632 45.1221 -63.8682 49.0587C-73.9263 52.4705 -85.7134 54.2978 -94.2334 60.8311C-102.367 67.0683 -113.773 69.5043 -121.532 75.554C-128.048 80.6343 -130.145 81.377 -139.008 81.5497C-148.969 81.7438 -163.751 68.9238 -172.622 64.6763C-183.715 59.3642 -195.756 58.245 -207.903 58.8248C-229.151 59.8391 -250.863 67.1108 -267.337 81.0691C-282.411 93.8399 -295.287 90.5747 -312.323 84.2488C-320.624 81.1664 -327.852 76.6213 -335.936 73.2982C-341.975 70.8159 -349.594 69.8217 -355.164 66.6804C-368.682 59.0553 -377.229 64.949 -387.83 74.0206C-394.565 79.7837 -406.59 93.1148 -417.006 88.8331C-428.988 83.9076 -435.747 73.4176 -449.682 74.0828C-462.492 74.6943 -474.776 75.7732 -487.122 77.7281C-491.204 78.3745 -498.401 87.4111 -499.22 91.3125C-500.335 96.6209 -504.889 99.5035 -504.647 104.578" stroke="#002033" stroke-width="3" stroke-linecap="round"/>
</svg>
