<svg width="756" height="86" viewBox="0 0 756 86" fill="none" xmlns="http://www.w3.org/2000/svg">
<path d="M754.346 7.15167C745.252 7.58578 737.88 12.3972 728.454 12.8472C723.515 13.0829 713.708 15.4785 709.249 12.9381C704.799 10.4031 700.597 7.01959 696.023 4.73306C688.624 1.03395 671.276 2.2736 663.302 4.39566C647.329 8.64651 631.542 15.0978 616.08 21.1845C607.124 24.7103 590.362 30.2003 581.494 25.1479C574.48 21.1519 566.402 16.1235 558.064 16.5215C536.96 17.529 517.945 19.5648 497.35 24.7051C484.766 27.8459 471.647 29.2499 458.948 31.9888C452.32 33.4183 445.001 35.1649 438.256 35.6192C427.345 36.3542 416.866 36.1869 406.211 35.5799C402.984 35.396 397.098 32.5324 394.071 31.0392C390.498 29.2764 384.284 30.7632 380.405 30.9484C373.248 31.29 364.939 30.6372 357.951 32.3506C351.693 33.8847 345.516 37.3013 339.234 39.1901C334.024 40.7564 327.839 45.0021 322.814 45.5896C315.823 46.4068 309.003 43.4878 302.57 41.2706C289.897 36.9026 279.134 29.8367 265.128 30.5053C259.153 30.7905 253.177 31.0758 247.202 31.361C238.208 31.7904 230.996 37.0411 222.206 38.5002C203.023 41.6848 185.643 52.9206 165.532 51.5286C159.823 51.1335 154.491 47.6787 148.884 47.9464C142.677 48.2427 137.593 43.2278 131.504 42.9126C123.012 42.4731 112.19 37.4808 103.22 41.8679C97.297 44.765 90.6859 48.3327 84.5974 50.6849C79.6554 52.5941 73.4309 56.1545 68.1382 56.2604C54.046 56.5423 42.8812 44.2187 30.1927 40.1512C24.8154 38.4275 20.9517 36.0459 14.961 35.015C6.49512 33.5581 -0.131365 32.7624 -8.88971 33.1805C-18.6639 33.6471 -28.1165 36.5124 -37.3116 39.6574C-45.2811 42.3833 -54.6214 43.8408 -61.3709 49.0643C-67.8145 54.051 -76.8526 55.9956 -82.9991 60.8325C-88.1607 64.8944 -89.8225 65.4878 -96.8462 65.6227C-104.74 65.7744 -116.459 55.5133 -123.49 52.1122C-132.283 47.8586 -141.826 46.9589 -151.451 47.4184C-168.29 48.2222 -185.493 54.0317 -198.543 65.1921C-210.484 75.4031 -220.689 72.7864 -234.192 67.7196C-240.771 65.2508 -246.501 61.6122 -252.909 58.9509C-257.695 56.9629 -263.734 56.1648 -268.148 53.6498C-278.864 47.545 -285.635 52.2568 -294.033 59.5101C-299.368 64.1181 -308.892 74.7784 -317.148 71.3494C-326.645 67.4047 -332.006 59.0105 -343.048 59.5376C-353.2 60.0222 -362.934 60.8809 -372.717 62.4404C-375.952 62.956 -381.652 70.1825 -382.3 73.3033C-383.181 77.5495 -386.79 79.8539 -386.596 83.9139" stroke="#002033" stroke-width="3" stroke-linecap="round"/>
</svg>
