<svg width="1052" height="108" viewBox="0 0 1052 108" fill="none" xmlns="http://www.w3.org/2000/svg">
<path d="M1050.01 7.9767C1038.26 8.53794 1028.72 14.5678 1016.53 15.1495C1010.14 15.4543 997.462 18.469 991.702 15.3024C985.955 12.1425 980.53 7.9213 974.622 5.07225C965.064 0.463107 942.634 2.0482 932.322 4.71726C911.664 10.0638 891.242 18.1608 871.241 25.8013C859.655 30.2273 837.976 37.1244 826.521 30.8265C817.462 25.8455 807.029 19.576 796.25 20.0906C768.965 21.393 744.379 23.9768 717.744 30.4448C701.47 34.3968 684.507 36.1786 668.084 39.6285C659.514 41.429 650.048 43.6274 641.327 44.2091C627.221 45.1501 613.674 44.9624 599.901 44.2253C595.729 44.0021 588.126 40.4344 584.216 38.5739C579.601 36.3775 571.564 38.2488 566.55 38.4882C557.297 38.9299 546.557 38.1308 537.519 40.2869C529.426 42.2175 521.433 46.5011 513.308 48.8751C506.57 50.8439 498.566 56.164 492.068 56.9086C483.029 57.9446 474.219 54.3094 465.907 51.5508C449.532 46.1163 435.632 37.3052 417.526 38.1696C409.8 38.5384 402.075 38.9072 394.349 39.276C382.722 39.831 373.388 46.4096 362.021 48.2517C337.215 52.2719 314.724 66.3532 288.728 64.6541C281.35 64.1718 274.463 59.8639 267.214 60.21C259.19 60.593 252.627 54.3342 244.756 53.9527C233.779 53.4206 219.798 47.2019 208.194 52.7045C200.531 56.3382 191.977 60.8116 184.101 63.7646C177.708 66.1614 169.654 70.6249 162.812 70.7681C144.594 71.1493 130.185 55.7664 113.791 50.7075C106.842 48.5636 101.852 45.5943 94.1101 44.3178C83.1687 42.5138 74.6039 41.5327 63.2806 42.0732C50.644 42.6764 38.4182 46.2776 26.5247 50.228C16.2164 53.6518 4.1387 55.4929 -4.59742 62.0366C-12.9376 68.2836 -24.6256 70.7331 -32.5815 76.7922C-39.2625 81.8804 -41.412 82.6256 -50.4923 82.8087C-60.6973 83.0144 -75.8261 70.211 -84.9085 65.9736C-96.2672 60.6742 -108.602 59.5689 -121.047 60.163C-142.816 61.2022 -165.067 68.4996 -181.961 82.4779C-197.418 95.2671 -210.606 92.0167 -228.051 85.7104C-236.552 82.6375 -243.952 78.1006 -252.23 74.7868C-258.413 72.3113 -266.218 71.326 -271.92 68.191C-285.76 60.5813 -294.524 66.4853 -305.395 75.5698C-312.301 81.3411 -324.635 94.687 -335.301 90.4172C-347.571 85.5054 -354.484 75.0227 -368.76 75.7042C-381.884 76.3307 -394.47 77.4241 -407.121 79.3936C-411.303 80.0447 -418.687 89.0902 -419.531 92.9928C-420.679 98.3028 -425.348 101.191 -425.106 106.266" stroke="#002033" stroke-width="3" stroke-linecap="round"/>
</svg>
