<svg width="1131" height="134" viewBox="0 0 1131 134" fill="none" xmlns="http://www.w3.org/2000/svg">
<path d="M1128.99 9.82088C1114.44 10.5155 1102.64 18.1396 1087.56 18.8595C1079.66 19.2368 1063.97 23.0376 1056.83 19.0188C1049.72 15.0085 1043 9.65442 1035.68 6.03762C1023.84 0.186435 996.086 2.16303 983.327 5.52937C957.768 12.2727 932.504 22.5 907.761 32.1498C893.428 37.7396 866.606 46.4455 852.421 38.4528C841.202 32.1312 828.281 24.1758 814.941 24.8126C781.174 26.4245 750.749 29.6631 717.794 37.8186C697.658 42.8015 676.666 45.0349 656.346 49.3818C645.741 51.6504 634.029 54.4218 623.237 55.1465C605.78 56.3188 589.013 56.0623 571.966 55.1096C566.803 54.8211 557.388 50.2917 552.547 47.9297C546.831 45.1414 536.888 47.5004 530.682 47.7967C519.23 48.3434 505.937 47.3164 494.755 50.0348C484.741 52.4689 474.855 57.8834 464.802 60.8791C456.466 63.3633 446.567 70.0907 438.526 71.0249C427.34 72.3245 416.432 67.7079 406.141 64.2024C385.868 57.2963 368.652 46.117 346.244 47.1867C336.683 47.6431 327.122 48.0995 317.561 48.5559C303.172 49.2428 291.628 57.5623 277.564 59.8797C246.868 64.9373 219.052 82.7415 186.876 80.5534C177.743 79.9323 169.214 74.4664 160.243 74.8947C150.313 75.3687 142.182 67.4323 132.44 66.9382C118.854 66.249 101.542 58.353 87.1876 65.3064C77.7085 69.8983 67.1282 75.5525 57.3849 79.2818C49.4764 82.3087 39.5146 87.9511 31.0465 88.123C8.49924 88.5805 -9.35432 69.0765 -29.6521 62.6463C-38.2543 59.9212 -44.4342 56.1533 -54.0182 54.5257C-67.5621 52.2257 -78.1636 50.9711 -92.177 51.6401C-107.816 52.3866 -122.942 56.9309 -137.656 61.918C-150.409 66.2403 -165.354 68.5555 -176.158 76.8316C-186.471 84.7326 -200.933 87.8188 -210.771 95.4823C-219.033 101.918 -221.692 102.859 -232.93 103.078C-245.56 103.324 -264.301 87.0866 -275.548 81.7069C-289.613 74.9789 -304.88 73.5619 -320.282 74.2971C-347.223 75.5832 -374.752 84.7953 -395.641 102.477C-414.754 118.654 -431.079 114.519 -452.679 106.507C-463.204 102.603 -472.369 96.8465 -482.619 92.6378C-490.275 89.4938 -499.936 88.2351 -506.997 84.2563C-524.137 74.5987 -534.974 82.0646 -548.416 93.5559C-556.956 100.856 -572.203 117.743 -585.409 112.32C-600.601 106.082 -609.171 92.795 -626.839 93.6384C-643.081 94.4137 -658.656 95.7811 -674.31 98.2581C-679.486 99.0771 -688.613 110.524 -689.651 115.466C-691.064 122.19 -696.84 125.841 -696.533 132.27" stroke="#002033" stroke-width="3" stroke-linecap="round"/>
</svg>
